<?xml version="1.0" encoding="UTF-8" standalone="no"?><!DOCTYPE svg PUBLIC "-//W3C//DTD SVG 1.1//EN" "http://www.w3.org/Graphics/SVG/1.1/DTD/svg11.dtd"><!-- Generated by graphviz version 2.40.1 (20161225.0304)
 --><!-- Title: java Pages: 1 --><svg xmlns="http://www.w3.org/2000/svg" xmlns:xlink="http://www.w3.org/1999/xlink" width="2130pt" height="1587pt" viewBox="0.00 0.00 2129.63 1587.40">
<g id="graph0" class="graph" transform="scale(1 1) rotate(0) translate(4 1583.4)">
<title>java</title>
<polygon fill="#ffffff" stroke="transparent" points="-4,4 -4,-1583.4 2125.6334,-1583.4 2125.6334,4 -4,4"/>
<!-- Carrera -->
<g id="node1" class="node">
<title>Carrera</title>
<polygon fill="none" stroke="#000000" points="1473.3414,-886.9 1473.3414,-1129.3 1784.3662,-1129.3 1784.3662,-886.9 1473.3414,-886.9"/>
<text text-anchor="middle" x="1628.8538" y="-1112.7" font-family="Times,serif" font-size="14.00" fill="#000000">Carrera</text>
<polyline fill="none" stroke="#000000" points="1473.3414,-1104.5 1784.3662,-1104.5 "/>
<text text-anchor="start" x="1481.3414" y="-1087.9" font-family="Times,serif" font-size="14.00" fill="#000000">- nombre : String</text>
<text text-anchor="start" x="1481.3414" y="-1071.1" font-family="Times,serif" font-size="14.00" fill="#000000"> - duracion : int</text>
<text text-anchor="start" x="1481.3414" y="-1054.3" font-family="Times,serif" font-size="14.00" fill="#000000"> - idCarrera : Long</text>
<text text-anchor="start" x="1481.3414" y="-1037.5" font-family="Times,serif" font-size="14.00" fill="#000000"> - estudiantes : List&lt;Estudiante_Carrera&gt;</text>
<polyline fill="none" stroke="#000000" points="1473.3414,-1029.3 1784.3662,-1029.3 "/>
<text text-anchor="start" x="1481.3414" y="-1012.7" font-family="Times,serif" font-size="14.00" fill="#000000">+ getIdCarrera() : Long</text>
<text text-anchor="start" x="1481.3414" y="-995.9" font-family="Times,serif" font-size="14.00" fill="#000000"> + getDuracion() : int</text>
<text text-anchor="start" x="1481.3414" y="-979.1" font-family="Times,serif" font-size="14.00" fill="#000000"> + addEstudiante(Estudiante) : void</text>
<text text-anchor="start" x="1481.3414" y="-962.3" font-family="Times,serif" font-size="14.00" fill="#000000"> + getNombre() : String</text>
<text text-anchor="start" x="1481.3414" y="-945.5" font-family="Times,serif" font-size="14.00" fill="#000000"> + getEstudiantes() : ArrayList&lt;Estudiante_Carrera&gt;</text>
<text text-anchor="start" x="1481.3414" y="-928.7" font-family="Times,serif" font-size="14.00" fill="#000000"> + setDuracion(int) : void</text>
<text text-anchor="start" x="1481.3414" y="-911.9" font-family="Times,serif" font-size="14.00" fill="#000000"> + toString() : String</text>
<text text-anchor="start" x="1481.3414" y="-895.1" font-family="Times,serif" font-size="14.00" fill="#000000"> + setNombre(String) : void</text>
</g>
<!-- Estudiante_Carrera -->
<g id="node6" class="node">
<title>Estudiante_Carrera</title>
<polygon fill="none" stroke="#000000" points="1421.222,-481.5 1421.222,-824.7 1674.4856,-824.7 1674.4856,-481.5 1421.222,-481.5"/>
<text text-anchor="middle" x="1547.8538" y="-808.1" font-family="Times,serif" font-size="14.00" fill="#000000">Estudiante_Carrera</text>
<polyline fill="none" stroke="#000000" points="1421.222,-799.9 1674.4856,-799.9 "/>
<text text-anchor="start" x="1429.222" y="-783.3" font-family="Times,serif" font-size="14.00" fill="#000000">- carrera : Carrera</text>
<text text-anchor="start" x="1429.222" y="-766.5" font-family="Times,serif" font-size="14.00" fill="#000000"> - fechaGraduacion : Timestamp</text>
<text text-anchor="start" x="1429.222" y="-749.7" font-family="Times,serif" font-size="14.00" fill="#000000"> - antiguedad : int</text>
<text text-anchor="start" x="1429.222" y="-732.9" font-family="Times,serif" font-size="14.00" fill="#000000"> - estudiante : Estudiante</text>
<text text-anchor="start" x="1429.222" y="-716.1" font-family="Times,serif" font-size="14.00" fill="#000000"> - fechaInscripcion : Timestamp</text>
<text text-anchor="start" x="1429.222" y="-699.3" font-family="Times,serif" font-size="14.00" fill="#000000"> - id : Long</text>
<polyline fill="none" stroke="#000000" points="1421.222,-691.1 1674.4856,-691.1 "/>
<text text-anchor="start" x="1429.222" y="-674.5" font-family="Times,serif" font-size="14.00" fill="#000000">+ getFechaInscripcion() : Timestamp</text>
<text text-anchor="start" x="1429.222" y="-657.7" font-family="Times,serif" font-size="14.00" fill="#000000"> + getFechaGraduacion() : Timestamp</text>
<text text-anchor="start" x="1429.222" y="-640.9" font-family="Times,serif" font-size="14.00" fill="#000000"> + setEstudiante(Estudiante) : void</text>
<text text-anchor="start" x="1429.222" y="-624.1" font-family="Times,serif" font-size="14.00" fill="#000000"> + setCarrera(Carrera) : void</text>
<text text-anchor="start" x="1429.222" y="-607.3" font-family="Times,serif" font-size="14.00" fill="#000000"> + getAntiguedad() : int</text>
<text text-anchor="start" x="1429.222" y="-590.5" font-family="Times,serif" font-size="14.00" fill="#000000"> + getCarrera() : Carrera</text>
<text text-anchor="start" x="1429.222" y="-573.7" font-family="Times,serif" font-size="14.00" fill="#000000"> + getEstudiante() : Estudiante</text>
<text text-anchor="start" x="1429.222" y="-556.9" font-family="Times,serif" font-size="14.00" fill="#000000"> + setFechaInscripcion(Timestamp) : void</text>
<text text-anchor="start" x="1429.222" y="-540.1" font-family="Times,serif" font-size="14.00" fill="#000000"> + setFechaGraduacion(Timestamp) : void</text>
<text text-anchor="start" x="1429.222" y="-523.3" font-family="Times,serif" font-size="14.00" fill="#000000"> + setAntiguedad(int) : void</text>
<text text-anchor="start" x="1429.222" y="-506.5" font-family="Times,serif" font-size="14.00" fill="#000000"> + toString() : String</text>
<text text-anchor="start" x="1429.222" y="-489.7" font-family="Times,serif" font-size="14.00" fill="#000000"> + getId() : Long</text>
</g>
<!-- Carrera&#45;&gt;Estudiante_Carrera -->
<g id="edge1" class="edge">
<title>Carrera-&gt;Estudiante_Carrera</title>
<path fill="none" stroke="#595959" stroke-dasharray="5,2" d="M1624.1995,-886.4258C1624.1995,-886.4258 1624.1995,-834.8411 1624.1995,-834.8411"/>
<polygon fill="#595959" stroke="#595959" points="1624.1995,-824.8411 1628.6996,-834.841 1624.1996,-829.8411 1624.1996,-834.8411 1624.1996,-834.8411 1624.1996,-834.8411 1624.1996,-829.8411 1619.6996,-834.8411 1624.1995,-824.8411 1624.1995,-824.8411"/>
<text text-anchor="middle" x="1576.2192" y="-847.4" font-family="Times,serif" font-size="14.00" fill="#000000">«create»</text>
</g>
<!-- Carrera&#45;&gt;Estudiante_Carrera -->
<g id="edge2" class="edge">
<title>Carrera-&gt;Estudiante_Carrera</title>
<path fill="none" stroke="#595959" d="M1573.9135,-874.4258C1573.9135,-874.4258 1573.9135,-834.8411 1573.9135,-834.8411"/>
<polygon fill="#595959" stroke="#595959" points="1573.9135,-836.8411 1569.9135,-830.8411 1573.9135,-824.8411 1577.9135,-830.8411 1573.9135,-836.8411"/>
<polygon fill="#595959" stroke="#595959" points="1573.9135,-886.4258 1569.4135,-876.4258 1573.9135,-881.4258 1573.9135,-876.4258 1573.9135,-876.4258 1573.9135,-876.4258 1573.9135,-881.4258 1578.4135,-876.4258 1573.9135,-886.4258 1573.9135,-886.4258"/>
<text text-anchor="middle" x="1542.8111" y="-873.8258" font-family="Times,serif" font-size="14.00" fill="#000000">estudiantes</text>
<text text-anchor="middle" x="1542.8111" y="-857.0258" font-family="Times,serif" font-size="14.00" fill="#000000">*</text>
<text text-anchor="middle" x="1570.4135" y="-829.0411" font-family="Times,serif" font-size="14.00" fill="#000000">1</text>
</g>
<!-- CarreraRepository -->
<g id="node2" class="node">
<title>CarreraRepository</title>
<polygon fill="none" stroke="#000000" points="1344.0742,-1216.7 1344.0742,-1375.1 1663.6334,-1375.1 1663.6334,-1216.7 1344.0742,-1216.7"/>
<text text-anchor="middle" x="1503.8538" y="-1358.5" font-family="Times,serif" font-size="14.00" fill="#000000">CarreraRepository</text>
<polyline fill="none" stroke="#000000" points="1344.0742,-1350.3 1663.6334,-1350.3 "/>
<text text-anchor="start" x="1352.0742" y="-1333.7" font-family="Times,serif" font-size="14.00" fill="#000000">- em : EntityManager</text>
<polyline fill="none" stroke="#000000" points="1344.0742,-1325.5 1663.6334,-1325.5 "/>
<text text-anchor="start" x="1352.0742" y="-1308.9" font-family="Times,serif" font-size="14.00" fill="#000000">+ deleteCarrera(Carrera) : void</text>
<text text-anchor="start" x="1352.0742" y="-1292.1" font-family="Times,serif" font-size="14.00" fill="#000000"> + findCarrera(Long) : Carrera</text>
<text text-anchor="start" x="1352.0742" y="-1275.3" font-family="Times,serif" font-size="14.00" fill="#000000"> + getCarreraById(int) : Carrera</text>
<text text-anchor="start" x="1352.0742" y="-1258.5" font-family="Times,serif" font-size="14.00" fill="#000000"> + saveCarrera(Carrera) : void</text>
<text text-anchor="start" x="1352.0742" y="-1241.7" font-family="Times,serif" font-size="14.00" fill="#000000"> + getCarreraXEstudiantesInscriptos() : List&lt;Carrera&gt;</text>
<text text-anchor="start" x="1352.0742" y="-1224.9" font-family="Times,serif" font-size="14.00" fill="#000000"> + insertCarrera(CSVParser) : void</text>
</g>
<!-- CarreraRepository&#45;&gt;Carrera -->
<g id="edge3" class="edge">
<title>CarreraRepository-&gt;Carrera</title>
<path fill="none" stroke="#595959" stroke-dasharray="5,2" d="M1568.4874,-1216.4955C1568.4874,-1216.4955 1568.4874,-1139.3222 1568.4874,-1139.3222"/>
<polygon fill="#595959" stroke="#595959" points="1568.4874,-1129.3222 1572.9875,-1139.3222 1568.4874,-1134.3222 1568.4875,-1139.3222 1568.4875,-1139.3222 1568.4875,-1139.3222 1568.4874,-1134.3222 1563.9875,-1139.3223 1568.4874,-1129.3222 1568.4874,-1129.3222"/>
<text text-anchor="middle" x="1574.2192" y="-1160.4" font-family="Times,serif" font-size="14.00" fill="#000000">«create»</text>
</g>
<!-- ICarrera -->
<g id="node11" class="node">
<title>ICarrera</title>
<polygon fill="none" stroke="#000000" points="1802.0742,-932.9 1802.0742,-1083.3 2121.6334,-1083.3 2121.6334,-932.9 1802.0742,-932.9"/>
<text text-anchor="middle" x="1961.8538" y="-1066.7" font-family="Times,serif" font-size="14.00" fill="#000000">&lt;&lt;interface&gt;&gt;</text>
<text text-anchor="middle" x="1961.8538" y="-1049.9" font-family="Times,serif" font-size="14.00" fill="#000000">ICarrera</text>
<polyline fill="none" stroke="#000000" points="1802.0742,-1041.7 2121.6334,-1041.7 "/>
<text text-anchor="start" x="1810.0742" y="-1025.1" font-family="Times,serif" font-size="14.00" fill="#000000">+ insertCarrera(CSVParser) : void</text>
<text text-anchor="start" x="1810.0742" y="-1008.3" font-family="Times,serif" font-size="14.00" fill="#000000"> + deleteCarrera(Carrera) : void</text>
<text text-anchor="start" x="1810.0742" y="-991.5" font-family="Times,serif" font-size="14.00" fill="#000000"> + findCarrera(Long) : Carrera</text>
<text text-anchor="start" x="1810.0742" y="-974.7" font-family="Times,serif" font-size="14.00" fill="#000000"> + getCarreraXEstudiantesInscriptos() : List&lt;Carrera&gt;</text>
<text text-anchor="start" x="1810.0742" y="-957.9" font-family="Times,serif" font-size="14.00" fill="#000000"> + saveCarrera(Carrera) : void</text>
<text text-anchor="start" x="1810.0742" y="-941.1" font-family="Times,serif" font-size="14.00" fill="#000000"> + getCarreraById(int) : Carrera</text>
</g>
<!-- CarreraRepository&#45;&gt;ICarrera -->
<g id="edge4" class="edge">
<title>CarreraRepository-&gt;ICarrera</title>
<path fill="none" stroke="#008200" stroke-dasharray="5,2" d="M1663.7184,-1295C1795.8448,-1295 1961.8538,-1295 1961.8538,-1295 1961.8538,-1295 1961.8538,-1093.4796 1961.8538,-1093.4796"/>
<polygon fill="#008200" stroke="#008200" points="1965.3539,-1093.4796 1961.8538,-1083.4796 1958.3539,-1093.4796 1965.3539,-1093.4796"/>
</g>
<!-- DTOReporte -->
<g id="node3" class="node">
<title>DTOReporte</title>
<polygon fill="none" stroke="#000000" points="848.4573,-878.5 848.4573,-1137.7 1035.2503,-1137.7 1035.2503,-878.5 848.4573,-878.5"/>
<text text-anchor="middle" x="941.8538" y="-1121.1" font-family="Times,serif" font-size="14.00" fill="#000000">DTOReporte</text>
<polyline fill="none" stroke="#000000" points="848.4573,-1112.9 1035.2503,-1112.9 "/>
<text text-anchor="start" x="856.4573" y="-1096.3" font-family="Times,serif" font-size="14.00" fill="#000000">- graduados : double</text>
<text text-anchor="start" x="856.4573" y="-1079.5" font-family="Times,serif" font-size="14.00" fill="#000000"> - inscriptos : double</text>
<text text-anchor="start" x="856.4573" y="-1062.7" font-family="Times,serif" font-size="14.00" fill="#000000"> - fecha : Integer</text>
<text text-anchor="start" x="856.4573" y="-1045.9" font-family="Times,serif" font-size="14.00" fill="#000000"> - c : String</text>
<polyline fill="none" stroke="#000000" points="848.4573,-1037.7 1035.2503,-1037.7 "/>
<text text-anchor="start" x="856.4573" y="-1021.1" font-family="Times,serif" font-size="14.00" fill="#000000">+ setGraduados(double) : void</text>
<text text-anchor="start" x="856.4573" y="-1004.3" font-family="Times,serif" font-size="14.00" fill="#000000"> + getInscriptos() : double</text>
<text text-anchor="start" x="856.4573" y="-987.5" font-family="Times,serif" font-size="14.00" fill="#000000"> + getGraduados() : double</text>
<text text-anchor="start" x="856.4573" y="-970.7" font-family="Times,serif" font-size="14.00" fill="#000000"> + getC() : String</text>
<text text-anchor="start" x="856.4573" y="-953.9" font-family="Times,serif" font-size="14.00" fill="#000000"> + setC(String) : void</text>
<text text-anchor="start" x="856.4573" y="-937.1" font-family="Times,serif" font-size="14.00" fill="#000000"> + setFecha(Integer) : void</text>
<text text-anchor="start" x="856.4573" y="-920.3" font-family="Times,serif" font-size="14.00" fill="#000000"> + setInscriptos(double) : void</text>
<text text-anchor="start" x="856.4573" y="-903.5" font-family="Times,serif" font-size="14.00" fill="#000000"> + getFecha() : Integer</text>
<text text-anchor="start" x="856.4573" y="-886.7" font-family="Times,serif" font-size="14.00" fill="#000000"> + toString() : String</text>
</g>
<!-- Estudiante -->
<g id="node4" class="node">
<title>Estudiante</title>
<polygon fill="none" stroke="#000000" points="1359.9094,-.5 1359.9094,-427.7 1653.7982,-427.7 1653.7982,-.5 1359.9094,-.5"/>
<text text-anchor="middle" x="1506.8538" y="-411.1" font-family="Times,serif" font-size="14.00" fill="#000000">Estudiante</text>
<polyline fill="none" stroke="#000000" points="1359.9094,-402.9 1653.7982,-402.9 "/>
<text text-anchor="start" x="1367.9094" y="-386.3" font-family="Times,serif" font-size="14.00" fill="#000000">- nroDni : Long</text>
<text text-anchor="start" x="1367.9094" y="-369.5" font-family="Times,serif" font-size="14.00" fill="#000000"> - nombre : String</text>
<text text-anchor="start" x="1367.9094" y="-352.7" font-family="Times,serif" font-size="14.00" fill="#000000"> - nroLibretaUniv : int</text>
<text text-anchor="start" x="1367.9094" y="-335.9" font-family="Times,serif" font-size="14.00" fill="#000000"> - apellido : String</text>
<text text-anchor="start" x="1367.9094" y="-319.1" font-family="Times,serif" font-size="14.00" fill="#000000"> - genero : String</text>
<text text-anchor="start" x="1367.9094" y="-302.3" font-family="Times,serif" font-size="14.00" fill="#000000"> - edad : int</text>
<text text-anchor="start" x="1367.9094" y="-285.5" font-family="Times,serif" font-size="14.00" fill="#000000"> - ciudadResidencia : String</text>
<text text-anchor="start" x="1367.9094" y="-268.7" font-family="Times,serif" font-size="14.00" fill="#000000"> - carreras : List&lt;Estudiante_Carrera&gt;</text>
<polyline fill="none" stroke="#000000" points="1359.9094,-260.5 1653.7982,-260.5 "/>
<text text-anchor="start" x="1367.9094" y="-243.9" font-family="Times,serif" font-size="14.00" fill="#000000">+ getNroDni() : Long</text>
<text text-anchor="start" x="1367.9094" y="-227.1" font-family="Times,serif" font-size="14.00" fill="#000000"> + addCarrera(Carrera) : void</text>
<text text-anchor="start" x="1367.9094" y="-210.3" font-family="Times,serif" font-size="14.00" fill="#000000"> + getGenero() : String</text>
<text text-anchor="start" x="1367.9094" y="-193.5" font-family="Times,serif" font-size="14.00" fill="#000000"> + getCiudadResidencia() : String</text>
<text text-anchor="start" x="1367.9094" y="-176.7" font-family="Times,serif" font-size="14.00" fill="#000000"> + setApellido(String) : void</text>
<text text-anchor="start" x="1367.9094" y="-159.9" font-family="Times,serif" font-size="14.00" fill="#000000"> + getNombre() : String</text>
<text text-anchor="start" x="1367.9094" y="-143.1" font-family="Times,serif" font-size="14.00" fill="#000000"> + getCarreras() : ArrayList&lt;Estudiante_Carrera&gt;</text>
<text text-anchor="start" x="1367.9094" y="-126.3" font-family="Times,serif" font-size="14.00" fill="#000000"> + getApellido() : String</text>
<text text-anchor="start" x="1367.9094" y="-109.5" font-family="Times,serif" font-size="14.00" fill="#000000"> + setCiudadResidencia(String) : void</text>
<text text-anchor="start" x="1367.9094" y="-92.7" font-family="Times,serif" font-size="14.00" fill="#000000"> + setGenero(String) : void</text>
<text text-anchor="start" x="1367.9094" y="-75.9" font-family="Times,serif" font-size="14.00" fill="#000000"> + setEdad(int) : void</text>
<text text-anchor="start" x="1367.9094" y="-59.1" font-family="Times,serif" font-size="14.00" fill="#000000"> + getEdad() : int</text>
<text text-anchor="start" x="1367.9094" y="-42.3" font-family="Times,serif" font-size="14.00" fill="#000000"> + getNroLibretaUniv() : int</text>
<text text-anchor="start" x="1367.9094" y="-25.5" font-family="Times,serif" font-size="14.00" fill="#000000"> + toString() : String</text>
<text text-anchor="start" x="1367.9094" y="-8.7" font-family="Times,serif" font-size="14.00" fill="#000000"> + setNombre(String) : void</text>
</g>
<!-- Estudiante&#45;&gt;Estudiante_Carrera -->
<g id="edge5" class="edge">
<title>Estudiante-&gt;Estudiante_Carrera</title>
<path fill="none" stroke="#595959" d="M1595.6541,-439.813C1595.6541,-439.813 1595.6541,-471.4537 1595.6541,-471.4537"/>
<polygon fill="#595959" stroke="#595959" points="1595.6542,-469.4537 1599.6542,-475.4537 1595.6541,-481.4537 1591.6542,-475.4537 1595.6542,-469.4537"/>
<polygon fill="#595959" stroke="#595959" points="1595.6541,-427.813 1600.1542,-437.813 1595.6542,-432.813 1595.6542,-437.813 1595.6542,-437.813 1595.6542,-437.813 1595.6542,-432.813 1591.1542,-437.813 1595.6541,-427.813 1595.6541,-427.813"/>
<text text-anchor="middle" x="1573.5117" y="-448.813" font-family="Times,serif" font-size="14.00" fill="#000000">carreras</text>
<text text-anchor="middle" x="1573.5117" y="-432.013" font-family="Times,serif" font-size="14.00" fill="#000000">*</text>
<text text-anchor="middle" x="1592.1541" y="-468.8537" font-family="Times,serif" font-size="14.00" fill="#000000">1</text>
</g>
<!-- Estudiante&#45;&gt;Estudiante_Carrera -->
<g id="edge6" class="edge">
<title>Estudiante-&gt;Estudiante_Carrera</title>
<path fill="none" stroke="#595959" stroke-dasharray="5,2" d="M1479.366,-427.813C1479.366,-427.813 1479.366,-471.4537 1479.366,-471.4537"/>
<polygon fill="#595959" stroke="#595959" points="1479.366,-481.4537 1474.8661,-471.4536 1479.3661,-476.4537 1479.3661,-471.4537 1479.3661,-471.4537 1479.3661,-471.4537 1479.3661,-476.4537 1483.8661,-471.4537 1479.366,-481.4537 1479.366,-481.4537"/>
<text text-anchor="middle" x="1495.2192" y="-450.4" font-family="Times,serif" font-size="14.00" fill="#000000">«create»</text>
</g>
<!-- EstudianteRepository -->
<g id="node5" class="node">
<title>EstudianteRepository</title>
<polygon fill="none" stroke="#000000" points="459.401,-1199.9 459.401,-1391.9 830.3066,-1391.9 830.3066,-1199.9 459.401,-1199.9"/>
<text text-anchor="middle" x="644.8538" y="-1375.3" font-family="Times,serif" font-size="14.00" fill="#000000">EstudianteRepository</text>
<polyline fill="none" stroke="#000000" points="459.401,-1367.1 830.3066,-1367.1 "/>
<text text-anchor="start" x="467.401" y="-1350.5" font-family="Times,serif" font-size="14.00" fill="#000000">- em : EntityManager</text>
<polyline fill="none" stroke="#000000" points="459.401,-1342.3 830.3066,-1342.3 "/>
<text text-anchor="start" x="467.401" y="-1325.7" font-family="Times,serif" font-size="14.00" fill="#000000">+ getEstudianteByLU(int) : Estudiante</text>
<text text-anchor="start" x="467.401" y="-1308.9" font-family="Times,serif" font-size="14.00" fill="#000000"> + insertarEstudiante(CSVParser) : boolean</text>
<text text-anchor="start" x="467.401" y="-1292.1" font-family="Times,serif" font-size="14.00" fill="#000000"> + deleteEstudiante(Estudiante) : void</text>
<text text-anchor="start" x="467.401" y="-1275.3" font-family="Times,serif" font-size="14.00" fill="#000000"> + findEstudiante(Long) : Estudiante</text>
<text text-anchor="start" x="467.401" y="-1258.5" font-family="Times,serif" font-size="14.00" fill="#000000"> + getEstudiantesByCriterio(String) : List&lt;Estudiante&gt;</text>
<text text-anchor="start" x="467.401" y="-1241.7" font-family="Times,serif" font-size="14.00" fill="#000000"> + getEstudiantesByGenero(String) : List&lt;Estudiante&gt;</text>
<text text-anchor="start" x="467.401" y="-1224.9" font-family="Times,serif" font-size="14.00" fill="#000000"> + getEstudiantesByCarrera(Carrera, String) : List&lt;Estudiante&gt;</text>
<text text-anchor="start" x="467.401" y="-1208.1" font-family="Times,serif" font-size="14.00" fill="#000000"> + saveEstudiante(Estudiante) : void</text>
</g>
<!-- EstudianteRepository&#45;&gt;Estudiante -->
<g id="edge7" class="edge">
<title>EstudianteRepository-&gt;Estudiante</title>
<path fill="none" stroke="#595959" stroke-dasharray="5,2" d="M830.5105,-1207C1051.798,-1207 1392.0358,-1207 1392.0358,-1207 1392.0358,-1207 1392.0358,-437.7117 1392.0358,-437.7117"/>
<polygon fill="#595959" stroke="#595959" points="1392.0358,-427.7117 1396.5359,-437.7117 1392.0358,-432.7117 1392.0359,-437.7117 1392.0359,-437.7117 1392.0359,-437.7117 1392.0358,-432.7117 1387.5359,-437.7118 1392.0358,-427.7117 1392.0358,-427.7117"/>
<text text-anchor="middle" x="460.2192" y="-847.4" font-family="Times,serif" font-size="14.00" fill="#000000">«create»</text>
</g>
<!-- IEstudiante -->
<g id="node12" class="node">
<title>IEstudiante</title>
<polygon fill="none" stroke="#000000" points="459.401,-916.1 459.401,-1100.1 830.3066,-1100.1 830.3066,-916.1 459.401,-916.1"/>
<text text-anchor="middle" x="644.8538" y="-1083.5" font-family="Times,serif" font-size="14.00" fill="#000000">&lt;&lt;interface&gt;&gt;</text>
<text text-anchor="middle" x="644.8538" y="-1066.7" font-family="Times,serif" font-size="14.00" fill="#000000">IEstudiante</text>
<polyline fill="none" stroke="#000000" points="459.401,-1058.5 830.3066,-1058.5 "/>
<text text-anchor="start" x="467.401" y="-1041.9" font-family="Times,serif" font-size="14.00" fill="#000000">+ saveEstudiante(Estudiante) : void</text>
<text text-anchor="start" x="467.401" y="-1025.1" font-family="Times,serif" font-size="14.00" fill="#000000"> + insertarEstudiante(CSVParser) : boolean</text>
<text text-anchor="start" x="467.401" y="-1008.3" font-family="Times,serif" font-size="14.00" fill="#000000"> + findEstudiante(Long) : Estudiante</text>
<text text-anchor="start" x="467.401" y="-991.5" font-family="Times,serif" font-size="14.00" fill="#000000"> + getEstudiantesByCarrera(Carrera, String) : List&lt;Estudiante&gt;</text>
<text text-anchor="start" x="467.401" y="-974.7" font-family="Times,serif" font-size="14.00" fill="#000000"> + getEstudiantesByCriterio(String) : List&lt;Estudiante&gt;</text>
<text text-anchor="start" x="467.401" y="-957.9" font-family="Times,serif" font-size="14.00" fill="#000000"> + getEstudianteByLU(int) : Estudiante</text>
<text text-anchor="start" x="467.401" y="-941.1" font-family="Times,serif" font-size="14.00" fill="#000000"> + getEstudiantesByGenero(String) : List&lt;Estudiante&gt;</text>
<text text-anchor="start" x="467.401" y="-924.3" font-family="Times,serif" font-size="14.00" fill="#000000"> + deleteEstudiante(Estudiante) : void</text>
</g>
<!-- EstudianteRepository&#45;&gt;IEstudiante -->
<g id="edge8" class="edge">
<title>EstudianteRepository-&gt;IEstudiante</title>
<path fill="none" stroke="#008200" stroke-dasharray="5,2" d="M644.8538,-1199.6666C644.8538,-1199.6666 644.8538,-1110.34 644.8538,-1110.34"/>
<polygon fill="#008200" stroke="#008200" points="648.3539,-1110.3399 644.8538,-1100.34 641.3539,-1110.34 648.3539,-1110.3399"/>
</g>
<!-- Estudiante_Carrera&#45;&gt;Carrera -->
<g id="edge9" class="edge">
<title>Estudiante_Carrera-&gt;Carrera</title>
<path fill="none" stroke="#595959" d="M1523.6275,-836.8807C1523.6275,-836.8807 1523.6275,-876.6914 1523.6275,-876.6914"/>
<polygon fill="#595959" stroke="#595959" points="1523.6275,-874.6914 1527.6275,-880.6914 1523.6275,-886.6914 1519.6275,-880.6914 1523.6275,-874.6914"/>
<polygon fill="#595959" stroke="#595959" points="1523.6275,-824.8807 1528.1275,-834.8807 1523.6275,-829.8807 1523.6275,-834.8807 1523.6275,-834.8807 1523.6275,-834.8807 1523.6275,-829.8807 1519.1275,-834.8807 1523.6275,-824.8807 1523.6275,-824.8807"/>
<text text-anchor="middle" x="1504.2073" y="-845.8807" font-family="Times,serif" font-size="14.00" fill="#000000">carrera</text>
<text text-anchor="middle" x="1504.2073" y="-829.0807" font-family="Times,serif" font-size="14.00" fill="#000000">1</text>
<text text-anchor="middle" x="1520.1275" y="-890.8914" font-family="Times,serif" font-size="14.00" fill="#000000">1</text>
</g>
<!-- Estudiante_Carrera&#45;&gt;Estudiante -->
<g id="edge10" class="edge">
<title>Estudiante_Carrera-&gt;Estudiante</title>
<path fill="none" stroke="#595959" d="M1537.5101,-469.485C1537.5101,-469.485 1537.5101,-438.0101 1537.5101,-438.0101"/>
<polygon fill="#595959" stroke="#595959" points="1537.5101,-440.0101 1533.5101,-434.0101 1537.5101,-428.0101 1541.5101,-434.0101 1537.5101,-440.0101"/>
<polygon fill="#595959" stroke="#595959" points="1537.5101,-481.485 1533.0101,-471.485 1537.5101,-476.485 1537.5101,-471.485 1537.5101,-471.485 1537.5101,-471.485 1537.5101,-476.485 1542.0101,-471.485 1537.5101,-481.485 1537.5101,-481.485"/>
<text text-anchor="middle" x="1551.7001" y="-468.885" font-family="Times,serif" font-size="14.00" fill="#000000">estudiante</text>
<text text-anchor="middle" x="1551.7001" y="-452.085" font-family="Times,serif" font-size="14.00" fill="#000000">1</text>
<text text-anchor="middle" x="1534.0101" y="-432.2101" font-family="Times,serif" font-size="14.00" fill="#000000">1</text>
</g>
<!-- Estudiante_CarreraRepository -->
<g id="node7" class="node">
<title>Estudiante_CarreraRepository</title>
<polygon fill="none" stroke="#000000" points="973.858,-1233.5 973.858,-1358.3 1283.8496,-1358.3 1283.8496,-1233.5 973.858,-1233.5"/>
<text text-anchor="middle" x="1128.8538" y="-1341.7" font-family="Times,serif" font-size="14.00" fill="#000000">Estudiante_CarreraRepository</text>
<polyline fill="none" stroke="#000000" points="973.858,-1333.5 1283.8496,-1333.5 "/>
<text text-anchor="start" x="981.858" y="-1316.9" font-family="Times,serif" font-size="14.00" fill="#000000">- em : EntityManager</text>
<polyline fill="none" stroke="#000000" points="973.858,-1308.7 1283.8496,-1308.7 "/>
<text text-anchor="start" x="981.858" y="-1292.1" font-family="Times,serif" font-size="14.00" fill="#000000">+ matricularEstudiante(Estudiante, Carrera) : void</text>
<text text-anchor="start" x="981.858" y="-1275.3" font-family="Times,serif" font-size="14.00" fill="#000000"> + insertarEstudianteCarrera(CSVParser) : void</text>
<text text-anchor="start" x="981.858" y="-1258.5" font-family="Times,serif" font-size="14.00" fill="#000000"> + saveEstudianteCarrera(Estudiante_Carrera) : void</text>
<text text-anchor="start" x="981.858" y="-1241.7" font-family="Times,serif" font-size="14.00" fill="#000000"> + getReporte() : List&lt;Object[]&gt;</text>
</g>
<!-- Estudiante_CarreraRepository&#45;&gt;DTOReporte -->
<g id="edge11" class="edge">
<title>Estudiante_CarreraRepository-&gt;DTOReporte</title>
<path fill="none" stroke="#595959" stroke-dasharray="5,2" d="M1004.5542,-1233.4517C1004.5542,-1233.4517 1004.5542,-1147.7988 1004.5542,-1147.7988"/>
<polygon fill="#595959" stroke="#595959" points="1004.5542,-1137.7988 1009.0542,-1147.7987 1004.5542,-1142.7988 1004.5542,-1147.7988 1004.5542,-1147.7988 1004.5542,-1147.7988 1004.5542,-1142.7988 1000.0542,-1147.7988 1004.5542,-1137.7988 1004.5542,-1137.7988"/>
<text text-anchor="middle" x="970.2192" y="-1160.4" font-family="Times,serif" font-size="14.00" fill="#000000">«create»</text>
</g>
<!-- Estudiante_CarreraRepository&#45;&gt;Estudiante_Carrera -->
<g id="edge12" class="edge">
<title>Estudiante_CarreraRepository-&gt;Estudiante_Carrera</title>
<path fill="none" stroke="#595959" stroke-dasharray="5,2" d="M1044.0542,-1233.379C1044.0542,-1071.8218 1044.0542,-653 1044.0542,-653 1044.0542,-653 1411.0491,-653 1411.0491,-653"/>
<polygon fill="#595959" stroke="#595959" points="1421.0491,-653 1411.0492,-657.5001 1416.0491,-653 1411.0491,-653.0001 1411.0491,-653.0001 1411.0491,-653.0001 1416.0491,-653 1411.0491,-648.5001 1421.0491,-653 1421.0491,-653"/>
<text text-anchor="middle" x="1427.2192" y="-1003.9" font-family="Times,serif" font-size="14.00" fill="#000000">«create»</text>
</g>
<!-- IEstudiante_Carrera -->
<g id="node13" class="node">
<title>IEstudiante_Carrera</title>
<polygon fill="none" stroke="#000000" points="1052.858,-949.7 1052.858,-1066.5 1362.8496,-1066.5 1362.8496,-949.7 1052.858,-949.7"/>
<text text-anchor="middle" x="1207.8538" y="-1049.9" font-family="Times,serif" font-size="14.00" fill="#000000">&lt;&lt;interface&gt;&gt;</text>
<text text-anchor="middle" x="1207.8538" y="-1033.1" font-family="Times,serif" font-size="14.00" fill="#000000">IEstudiante_Carrera</text>
<polyline fill="none" stroke="#000000" points="1052.858,-1024.9 1362.8496,-1024.9 "/>
<text text-anchor="start" x="1060.858" y="-1008.3" font-family="Times,serif" font-size="14.00" fill="#000000">+ getReporte() : List&lt;Object[]&gt;</text>
<text text-anchor="start" x="1060.858" y="-991.5" font-family="Times,serif" font-size="14.00" fill="#000000"> + insertarEstudianteCarrera(CSVParser) : void</text>
<text text-anchor="start" x="1060.858" y="-974.7" font-family="Times,serif" font-size="14.00" fill="#000000"> + saveEstudianteCarrera(Estudiante_Carrera) : void</text>
<text text-anchor="start" x="1060.858" y="-957.9" font-family="Times,serif" font-size="14.00" fill="#000000"> + matricularEstudiante(Estudiante, Carrera) : void</text>
</g>
<!-- Estudiante_CarreraRepository&#45;&gt;IEstudiante_Carrera -->
<g id="edge13" class="edge">
<title>Estudiante_CarreraRepository-&gt;IEstudiante_Carrera</title>
<path fill="none" stroke="#008200" stroke-dasharray="5,2" d="M1168.3538,-1233.4517C1168.3538,-1233.4517 1168.3538,-1076.5031 1168.3538,-1076.5031"/>
<polygon fill="#008200" stroke="#008200" points="1171.8539,-1076.5031 1168.3538,-1066.5031 1164.8539,-1076.5032 1171.8539,-1076.5031"/>
</g>
<!-- FactoryRepository -->
<g id="node8" class="node">
<title>FactoryRepository</title>
<polygon fill="none" stroke="#000000" points="34.25,-1191.5 34.25,-1400.3 441.4576,-1400.3 441.4576,-1191.5 34.25,-1191.5"/>
<text text-anchor="middle" x="237.8538" y="-1383.7" font-family="Times,serif" font-size="14.00" fill="#000000">FactoryRepository</text>
<polyline fill="none" stroke="#000000" points="34.25,-1375.5 441.4576,-1375.5 "/>
<text text-anchor="start" x="42.25" y="-1358.9" font-family="Times,serif" font-size="14.00" fill="#000000">- db_mysql : FactoryRepository</text>
<text text-anchor="start" x="42.25" y="-1342.1" font-family="Times,serif" font-size="14.00" fill="#000000"> + DERBY_DB : String</text>
<text text-anchor="start" x="42.25" y="-1325.3" font-family="Times,serif" font-size="14.00" fill="#000000"> + MYSQL_DB : String</text>
<text text-anchor="start" x="42.25" y="-1308.5" font-family="Times,serif" font-size="14.00" fill="#000000"> - db_derby : FactoryRepository</text>
<polyline fill="none" stroke="#000000" points="34.25,-1300.3 441.4576,-1300.3 "/>
<text text-anchor="start" x="42.25" y="-1283.7" font-family="Times,serif" font-size="14.00" fill="#000000">+ getCarreraRepository() : CarreraRepository</text>
<text text-anchor="start" x="42.25" y="-1266.9" font-family="Times,serif" font-size="14.00" fill="#000000"> + getEstudianteRepository() : EstudianteRepository</text>
<text text-anchor="start" x="42.25" y="-1250.1" font-family="Times,serif" font-size="14.00" fill="#000000"> + getInstanceMysql() : FactoryRepository</text>
<text text-anchor="start" x="42.25" y="-1233.3" font-family="Times,serif" font-size="14.00" fill="#000000"> + getInstanceDerby() : FactoryRepository</text>
<text text-anchor="start" x="42.25" y="-1216.5" font-family="Times,serif" font-size="14.00" fill="#000000"> + getEstudiante_CarreraRepository() : Estudiante_CarreraRepository</text>
<text text-anchor="start" x="42.25" y="-1199.7" font-family="Times,serif" font-size="14.00" fill="#000000"> + getFactory(String) : FactoryRepository?</text>
</g>
<!-- FactoryRepositoryDerby -->
<g id="node9" class="node">
<title>FactoryRepositoryDerby</title>
<polygon fill="none" stroke="#000000" points="0,-945.7 0,-1070.5 403.7076,-1070.5 403.7076,-945.7 0,-945.7"/>
<text text-anchor="middle" x="201.8538" y="-1053.9" font-family="Times,serif" font-size="14.00" fill="#000000">FactoryRepositoryDerby</text>
<polyline fill="none" stroke="#000000" points="0,-1045.7 403.7076,-1045.7 "/>
<text text-anchor="start" x="8" y="-1029.1" font-family="Times,serif" font-size="14.00" fill="#000000">- emf : EntityManagerFactory</text>
<text text-anchor="start" x="8" y="-1012.3" font-family="Times,serif" font-size="14.00" fill="#000000"> - em : EntityManager</text>
<polyline fill="none" stroke="#000000" points="0,-1004.1 403.7076,-1004.1 "/>
<text text-anchor="start" x="8" y="-987.5" font-family="Times,serif" font-size="14.00" fill="#000000">+ getEstudiante_CarreraRepository() : Estudiante_CarreraRepository</text>
<text text-anchor="start" x="8" y="-970.7" font-family="Times,serif" font-size="14.00" fill="#000000"> + getCarreraRepository() : CarreraRepository</text>
<text text-anchor="start" x="8" y="-953.9" font-family="Times,serif" font-size="14.00" fill="#000000"> + getEstudianteRepository() : EstudianteRepository</text>
</g>
<!-- FactoryRepository&#45;&gt;FactoryRepositoryDerby -->
<g id="edge14" class="edge">
<title>FactoryRepository-&gt;FactoryRepositoryDerby</title>
<path fill="none" stroke="#595959" stroke-dasharray="5,2" d="M280.5551,-1191.1835C280.5551,-1191.1835 280.5551,-1080.8742 280.5551,-1080.8742"/>
<polygon fill="#595959" stroke="#595959" points="280.5551,-1070.8742 285.0552,-1080.8741 280.5551,-1075.8742 280.5552,-1080.8742 280.5552,-1080.8742 280.5552,-1080.8742 280.5551,-1075.8742 276.0552,-1080.8742 280.5551,-1070.8742 280.5551,-1070.8742"/>
<text text-anchor="middle" x="265.2192" y="-1160.4" font-family="Times,serif" font-size="14.00" fill="#000000">«create»</text>
</g>
<!-- FactoryRepositoryMySql -->
<g id="node10" class="node">
<title>FactoryRepositoryMySql</title>
<polygon fill="none" stroke="#000000" points="443,-1454.1 443,-1578.9 846.7076,-1578.9 846.7076,-1454.1 443,-1454.1"/>
<text text-anchor="middle" x="644.8538" y="-1562.3" font-family="Times,serif" font-size="14.00" fill="#000000">FactoryRepositoryMySql</text>
<polyline fill="none" stroke="#000000" points="443,-1554.1 846.7076,-1554.1 "/>
<text text-anchor="start" x="451" y="-1537.5" font-family="Times,serif" font-size="14.00" fill="#000000">- em : EntityManager</text>
<text text-anchor="start" x="451" y="-1520.7" font-family="Times,serif" font-size="14.00" fill="#000000"> - emf : EntityManagerFactory</text>
<polyline fill="none" stroke="#000000" points="443,-1512.5 846.7076,-1512.5 "/>
<text text-anchor="start" x="451" y="-1495.9" font-family="Times,serif" font-size="14.00" fill="#000000">+ getEstudiante_CarreraRepository() : Estudiante_CarreraRepository</text>
<text text-anchor="start" x="451" y="-1479.1" font-family="Times,serif" font-size="14.00" fill="#000000"> + getEstudianteRepository() : EstudianteRepository</text>
<text text-anchor="start" x="451" y="-1462.3" font-family="Times,serif" font-size="14.00" fill="#000000"> + getCarreraRepository() : CarreraRepository</text>
</g>
<!-- FactoryRepository&#45;&gt;FactoryRepositoryMySql -->
<g id="edge15" class="edge">
<title>FactoryRepository-&gt;FactoryRepositoryMySql</title>
<path fill="none" stroke="#595959" stroke-dasharray="5,2" d="M441.6975,-1395C449.4202,-1395 453.934,-1395 453.934,-1395 453.934,-1395 453.934,-1443.9704 453.934,-1443.9704"/>
<polygon fill="#595959" stroke="#595959" points="453.934,-1453.9704 449.4341,-1443.9704 453.934,-1448.9704 453.9341,-1443.9704 453.9341,-1443.9704 453.9341,-1443.9704 453.934,-1448.9704 458.4341,-1443.9705 453.934,-1453.9704 453.934,-1453.9704"/>
<text text-anchor="middle" x="342.2192" y="-1423" font-family="Times,serif" font-size="14.00" fill="#000000">«create»</text>
</g>
<!-- FactoryRepositoryDerby&#45;&gt;FactoryRepository -->
<g id="edge16" class="edge">
<title>FactoryRepositoryDerby-&gt;FactoryRepository</title>
<path fill="none" stroke="#000082" d="M157.4025,-1070.5483C157.4025,-1070.5483 157.4025,-1181.4141 157.4025,-1181.4141"/>
<polygon fill="#000082" stroke="#000082" points="153.9026,-1181.4141 157.4025,-1191.4141 160.9026,-1181.4142 153.9026,-1181.4141"/>
</g>
<!-- FactoryRepositoryMySql&#45;&gt;CarreraRepository -->
<g id="edge17" class="edge">
<title>FactoryRepositoryMySql-&gt;CarreraRepository</title>
<path fill="none" stroke="#595959" stroke-dasharray="5,2" d="M841.2406,-1454.0324C841.2406,-1411.9175 841.2406,-1364 841.2406,-1364 841.2406,-1364 1333.8761,-1364 1333.8761,-1364"/>
<polygon fill="#595959" stroke="#595959" points="1343.8761,-1364 1333.8761,-1368.5001 1338.8761,-1364 1333.8761,-1364.0001 1333.8761,-1364.0001 1333.8761,-1364.0001 1338.8761,-1364 1333.876,-1359.5001 1343.8761,-1364 1343.8761,-1364"/>
<text text-anchor="middle" x="1057.2192" y="-1423" font-family="Times,serif" font-size="14.00" fill="#000000">«create»</text>
</g>
<!-- FactoryRepositoryMySql&#45;&gt;EstudianteRepository -->
<g id="edge18" class="edge">
<title>FactoryRepositoryMySql-&gt;EstudianteRepository</title>
<path fill="none" stroke="#595959" stroke-dasharray="5,2" d="M644.8538,-1453.875C644.8538,-1453.875 644.8538,-1402.0718 644.8538,-1402.0718"/>
<polygon fill="#595959" stroke="#595959" points="644.8538,-1392.0718 649.3539,-1402.0717 644.8538,-1397.0718 644.8539,-1402.0718 644.8539,-1402.0718 644.8539,-1402.0718 644.8538,-1397.0718 640.3539,-1402.0718 644.8538,-1392.0718 644.8538,-1392.0718"/>
<text text-anchor="middle" x="673.2192" y="-1423" font-family="Times,serif" font-size="14.00" fill="#000000">«create»</text>
</g>
<!-- FactoryRepositoryMySql&#45;&gt;Estudiante_CarreraRepository -->
<g id="edge19" class="edge">
<title>FactoryRepositoryMySql-&gt;Estudiante_CarreraRepository</title>
<path fill="none" stroke="#595959" stroke-dasharray="5,2" d="M835.7736,-1453.9151C835.7736,-1388.4151 835.7736,-1295 835.7736,-1295 835.7736,-1295 963.7317,-1295 963.7317,-1295"/>
<polygon fill="#595959" stroke="#595959" points="973.7317,-1295 963.7318,-1299.5001 968.7317,-1295 963.7317,-1295.0001 963.7317,-1295.0001 963.7317,-1295.0001 968.7317,-1295 963.7317,-1290.5001 973.7317,-1295 973.7317,-1295"/>
<text text-anchor="middle" x="866.2192" y="-1423" font-family="Times,serif" font-size="14.00" fill="#000000">«create»</text>
</g>
<!-- FactoryRepositoryMySql&#45;&gt;FactoryRepository -->
<g id="edge20" class="edge">
<title>FactoryRepositoryMySql-&gt;FactoryRepository</title>
<path fill="none" stroke="#000082" d="M448.467,-1453.7801C448.467,-1425.3558 448.467,-1398 448.467,-1398 448.467,-1398 447.7663,-1398 447.7663,-1398"/>
<polygon fill="#000082" stroke="#000082" points="451.4596,-1394.5002 441.4595,-1398 451.4595,-1401.5002 451.4596,-1394.5002"/>
</g>
<!-- Main -->
<g id="node14" class="node">
<title>Main</title>
<polygon fill="none" stroke="#000000" points="942.8102,-1462.5 942.8102,-1570.5 1314.8974,-1570.5 1314.8974,-1462.5 942.8102,-1462.5"/>
<text text-anchor="middle" x="1128.8538" y="-1553.9" font-family="Times,serif" font-size="14.00" fill="#000000">Main</text>
<polyline fill="none" stroke="#000000" points="942.8102,-1545.7 1314.8974,-1545.7 "/>
<text text-anchor="start" x="950.8102" y="-1529.1" font-family="Times,serif" font-size="14.00" fill="#000000">- estudianteRepository : EstudianteRepository</text>
<text text-anchor="start" x="950.8102" y="-1512.3" font-family="Times,serif" font-size="14.00" fill="#000000"> - carreraRepository : CarreraRepository</text>
<text text-anchor="start" x="950.8102" y="-1495.5" font-family="Times,serif" font-size="14.00" fill="#000000"> - estudiante_carreraRepository : Estudiante_CarreraRepository</text>
<polyline fill="none" stroke="#000000" points="942.8102,-1487.3 1314.8974,-1487.3 "/>
<text text-anchor="start" x="950.8102" y="-1470.7" font-family="Times,serif" font-size="14.00" fill="#000000">+ main(String[]) : void</text>
</g>
<!-- Main&#45;&gt;CarreraRepository -->
<g id="edge21" class="edge">
<title>Main-&gt;CarreraRepository</title>
<path fill="none" stroke="#595959" d="M1299.3735,-1450.365C1299.3735,-1450.365 1299.3735,-1370 1299.3735,-1370 1299.3735,-1370 1333.9949,-1370 1333.9949,-1370"/>
<polygon fill="#595959" stroke="#595959" points="1299.3736,-1450.365 1303.3735,-1456.3651 1299.3735,-1462.365 1295.3735,-1456.365 1299.3736,-1450.365"/>
<polygon fill="#595959" stroke="#595959" points="1343.9949,-1370 1333.9949,-1374.5001 1338.9949,-1370 1333.9949,-1370.0001 1333.9949,-1370.0001 1333.9949,-1370.0001 1338.9949,-1370 1333.9948,-1365.5001 1343.9949,-1370 1343.9949,-1370"/>
<text text-anchor="middle" x="1293.856" y="-1391" font-family="Times,serif" font-size="14.00" fill="#000000">carreraRepository</text>
<text text-anchor="middle" x="1293.856" y="-1374.2" font-family="Times,serif" font-size="14.00" fill="#000000">1</text>
<text text-anchor="middle" x="1295.8735" y="-1449.765" font-family="Times,serif" font-size="14.00" fill="#000000">1</text>
</g>
<!-- Main&#45;&gt;EstudianteRepository -->
<g id="edge22" class="edge">
<title>Main-&gt;EstudianteRepository</title>
<path fill="none" stroke="#595959" d="M958.3341,-1450.2249C958.3341,-1450.2249 958.3341,-1384 958.3341,-1384 958.3341,-1384 840.3775,-1384 840.3775,-1384"/>
<polygon fill="#595959" stroke="#595959" points="958.3342,-1450.2249 962.3341,-1456.2249 958.3341,-1462.2249 954.3341,-1456.2248 958.3342,-1450.2249"/>
<polygon fill="#595959" stroke="#595959" points="830.3775,-1384 840.3776,-1379.5001 835.3775,-1384 840.3775,-1384.0001 840.3775,-1384.0001 840.3775,-1384.0001 835.3775,-1384 840.3775,-1388.5001 830.3775,-1384 830.3775,-1384"/>
<text text-anchor="middle" x="889.4764" y="-1405" font-family="Times,serif" font-size="14.00" fill="#000000">estudianteRepository</text>
<text text-anchor="middle" x="889.4764" y="-1388.2" font-family="Times,serif" font-size="14.00" fill="#000000">1</text>
<text text-anchor="middle" x="954.8341" y="-1449.6249" font-family="Times,serif" font-size="14.00" fill="#000000">1</text>
</g>
<!-- Main&#45;&gt;Estudiante_CarreraRepository -->
<g id="edge23" class="edge">
<title>Main-&gt;Estudiante_CarreraRepository</title>
<path fill="none" stroke="#595959" d="M1128.8538,-1450.2526C1128.8538,-1450.2526 1128.8538,-1368.5354 1128.8538,-1368.5354"/>
<polygon fill="#595959" stroke="#595959" points="1128.8538,-1370.5354 1124.8538,-1364.5354 1128.8538,-1358.5354 1132.8538,-1364.5354 1128.8538,-1370.5354"/>
<polygon fill="#595959" stroke="#595959" points="1128.8538,-1462.2526 1124.3538,-1452.2526 1128.8538,-1457.2526 1128.8538,-1452.2526 1128.8538,-1452.2526 1128.8538,-1452.2526 1128.8538,-1457.2526 1133.3538,-1452.2526 1128.8538,-1462.2526 1128.8538,-1462.2526"/>
<text text-anchor="middle" x="1169.8633" y="-1449.6526" font-family="Times,serif" font-size="14.00" fill="#000000">estudiante_carreraRepository</text>
<text text-anchor="middle" x="1169.8633" y="-1432.8526" font-family="Times,serif" font-size="14.00" fill="#000000">1</text>
<text text-anchor="middle" x="1125.3538" y="-1362.7354" font-family="Times,serif" font-size="14.00" fill="#000000">1</text>
</g>
</g>
</svg>